<mxfile host="app.diagrams.net" agent="Mozilla/5.0 (Windows NT 10.0; Win64; x64) AppleWebKit/537.36 (KHTML, like Gecko) Chrome/134.0.0.0 Safari/537.36 Edg/134.0.0.0" version="26.1.0">
  <diagram id="2vuri-6Uz2e3O9SUpBDN" name="Page-1">
    <mxGraphModel dx="3473" dy="1883" grid="1" gridSize="10" guides="1" tooltips="1" connect="1" arrows="1" fold="1" page="1" pageScale="1" pageWidth="2000" pageHeight="2000" math="0" shadow="0">
      <root>
        <mxCell id="0" />
        <mxCell id="1" parent="0" />
        <mxCell id="GBFmPOaDEiTFyvfFLv_L-1" value="Data aggregator" style="html=1;dropTarget=0;whiteSpace=wrap;fillColor=#dae8fc;strokeColor=#6c8ebf;" vertex="1" parent="1">
          <mxGeometry x="920" y="220" width="180" height="90" as="geometry" />
        </mxCell>
        <mxCell id="GBFmPOaDEiTFyvfFLv_L-2" value="" style="shape=module;jettyWidth=8;jettyHeight=4;" vertex="1" parent="GBFmPOaDEiTFyvfFLv_L-1">
          <mxGeometry x="1" width="20" height="20" relative="1" as="geometry">
            <mxPoint x="-27" y="7" as="offset" />
          </mxGeometry>
        </mxCell>
        <mxCell id="GBFmPOaDEiTFyvfFLv_L-3" value="Database" style="html=1;dropTarget=0;whiteSpace=wrap;fillColor=#dae8fc;strokeColor=#6c8ebf;" vertex="1" parent="1">
          <mxGeometry x="920" y="390" width="180" height="90" as="geometry" />
        </mxCell>
        <mxCell id="GBFmPOaDEiTFyvfFLv_L-4" value="" style="shape=module;jettyWidth=8;jettyHeight=4;" vertex="1" parent="GBFmPOaDEiTFyvfFLv_L-3">
          <mxGeometry x="1" width="20" height="20" relative="1" as="geometry">
            <mxPoint x="-27" y="7" as="offset" />
          </mxGeometry>
        </mxCell>
        <mxCell id="GBFmPOaDEiTFyvfFLv_L-5" value="Stock comparison graphs/dashboard" style="html=1;dropTarget=0;whiteSpace=wrap;fillColor=#d5e8d4;strokeColor=#82b366;" vertex="1" parent="1">
          <mxGeometry x="1190" y="400" width="180" height="90" as="geometry" />
        </mxCell>
        <mxCell id="GBFmPOaDEiTFyvfFLv_L-6" value="" style="shape=module;jettyWidth=8;jettyHeight=4;" vertex="1" parent="GBFmPOaDEiTFyvfFLv_L-5">
          <mxGeometry x="1" width="20" height="20" relative="1" as="geometry">
            <mxPoint x="-27" y="7" as="offset" />
          </mxGeometry>
        </mxCell>
        <mxCell id="GBFmPOaDEiTFyvfFLv_L-7" value="External API service" style="html=1;dropTarget=0;whiteSpace=wrap;fillColor=#dae8fc;strokeColor=#6c8ebf;" vertex="1" parent="1">
          <mxGeometry x="1190" y="220" width="180" height="90" as="geometry" />
        </mxCell>
        <mxCell id="GBFmPOaDEiTFyvfFLv_L-8" value="" style="shape=module;jettyWidth=8;jettyHeight=4;" vertex="1" parent="GBFmPOaDEiTFyvfFLv_L-7">
          <mxGeometry x="1" width="20" height="20" relative="1" as="geometry">
            <mxPoint x="-27" y="7" as="offset" />
          </mxGeometry>
        </mxCell>
        <mxCell id="GBFmPOaDEiTFyvfFLv_L-9" value="" style="rounded=0;orthogonalLoop=1;jettySize=auto;html=1;endArrow=halfCircle;endFill=0;endSize=6;strokeWidth=1;sketch=0;exitX=0.5;exitY=0;exitDx=0;exitDy=0;" edge="1" parent="1" source="GBFmPOaDEiTFyvfFLv_L-3" target="GBFmPOaDEiTFyvfFLv_L-11">
          <mxGeometry relative="1" as="geometry">
            <mxPoint x="980" y="365" as="sourcePoint" />
          </mxGeometry>
        </mxCell>
        <mxCell id="GBFmPOaDEiTFyvfFLv_L-10" value="" style="rounded=0;orthogonalLoop=1;jettySize=auto;html=1;endArrow=oval;endFill=0;sketch=0;sourcePerimeterSpacing=0;targetPerimeterSpacing=0;endSize=10;exitX=0.5;exitY=1;exitDx=0;exitDy=0;" edge="1" parent="1" source="GBFmPOaDEiTFyvfFLv_L-1" target="GBFmPOaDEiTFyvfFLv_L-11">
          <mxGeometry relative="1" as="geometry">
            <mxPoint x="990" y="300" as="sourcePoint" />
          </mxGeometry>
        </mxCell>
        <mxCell id="GBFmPOaDEiTFyvfFLv_L-11" value="" style="ellipse;whiteSpace=wrap;html=1;align=center;aspect=fixed;fillColor=none;strokeColor=none;resizable=0;perimeter=centerPerimeter;rotatable=0;allowArrows=0;points=[];outlineConnect=1;" vertex="1" parent="1">
          <mxGeometry x="1005" y="350" width="10" height="10" as="geometry" />
        </mxCell>
        <mxCell id="GBFmPOaDEiTFyvfFLv_L-12" value="" style="rounded=0;orthogonalLoop=1;jettySize=auto;html=1;endArrow=halfCircle;endFill=0;endSize=6;strokeWidth=1;sketch=0;exitX=1;exitY=0.5;exitDx=0;exitDy=0;" edge="1" parent="1" source="GBFmPOaDEiTFyvfFLv_L-1" target="GBFmPOaDEiTFyvfFLv_L-14">
          <mxGeometry relative="1" as="geometry">
            <mxPoint x="1140" y="265" as="sourcePoint" />
          </mxGeometry>
        </mxCell>
        <mxCell id="GBFmPOaDEiTFyvfFLv_L-13" value="" style="rounded=0;orthogonalLoop=1;jettySize=auto;html=1;endArrow=oval;endFill=0;sketch=0;sourcePerimeterSpacing=0;targetPerimeterSpacing=0;endSize=10;exitX=0;exitY=0.5;exitDx=0;exitDy=0;" edge="1" parent="1" source="GBFmPOaDEiTFyvfFLv_L-7" target="GBFmPOaDEiTFyvfFLv_L-14">
          <mxGeometry relative="1" as="geometry">
            <mxPoint x="1150" y="230" as="sourcePoint" />
          </mxGeometry>
        </mxCell>
        <mxCell id="GBFmPOaDEiTFyvfFLv_L-14" value="" style="ellipse;whiteSpace=wrap;html=1;align=center;aspect=fixed;fillColor=none;strokeColor=none;resizable=0;perimeter=centerPerimeter;rotatable=0;allowArrows=0;points=[];outlineConnect=1;" vertex="1" parent="1">
          <mxGeometry x="1140" y="260" width="10" height="10" as="geometry" />
        </mxCell>
        <mxCell id="GBFmPOaDEiTFyvfFLv_L-15" value="" style="rounded=0;orthogonalLoop=1;jettySize=auto;html=1;endArrow=halfCircle;endFill=0;endSize=6;strokeWidth=1;sketch=0;exitX=0;exitY=0.5;exitDx=0;exitDy=0;" edge="1" parent="1" source="GBFmPOaDEiTFyvfFLv_L-5" target="GBFmPOaDEiTFyvfFLv_L-17">
          <mxGeometry relative="1" as="geometry">
            <mxPoint x="1140" y="445" as="sourcePoint" />
          </mxGeometry>
        </mxCell>
        <mxCell id="GBFmPOaDEiTFyvfFLv_L-16" value="" style="rounded=0;orthogonalLoop=1;jettySize=auto;html=1;endArrow=oval;endFill=0;sketch=0;sourcePerimeterSpacing=0;targetPerimeterSpacing=0;endSize=10;" edge="1" parent="1" target="GBFmPOaDEiTFyvfFLv_L-17">
          <mxGeometry relative="1" as="geometry">
            <mxPoint x="1100" y="445" as="sourcePoint" />
          </mxGeometry>
        </mxCell>
        <mxCell id="GBFmPOaDEiTFyvfFLv_L-17" value="" style="ellipse;whiteSpace=wrap;html=1;align=center;aspect=fixed;fillColor=none;strokeColor=none;resizable=0;perimeter=centerPerimeter;rotatable=0;allowArrows=0;points=[];outlineConnect=1;" vertex="1" parent="1">
          <mxGeometry x="1140" y="440" width="10" height="10" as="geometry" />
        </mxCell>
        <mxCell id="GBFmPOaDEiTFyvfFLv_L-18" value="IStockData" style="text;align=center;fontStyle=1;verticalAlign=middle;spacingLeft=3;spacingRight=3;strokeColor=none;rotatable=0;points=[[0,0.5],[1,0.5]];portConstraint=eastwest;html=1;" vertex="1" parent="1">
          <mxGeometry x="1015" y="342" width="80" height="26" as="geometry" />
        </mxCell>
        <mxCell id="GBFmPOaDEiTFyvfFLv_L-19" value="&lt;font&gt;IData&lt;/font&gt;" style="text;align=center;fontStyle=1;verticalAlign=middle;spacingLeft=3;spacingRight=3;strokeColor=none;rotatable=0;points=[[0,0.5],[1,0.5]];portConstraint=eastwest;html=1;" vertex="1" parent="1">
          <mxGeometry x="1095" y="260" width="110" height="50" as="geometry" />
        </mxCell>
        <mxCell id="GBFmPOaDEiTFyvfFLv_L-20" value="IStockGraph" style="text;align=center;fontStyle=1;verticalAlign=middle;spacingLeft=3;spacingRight=3;strokeColor=none;rotatable=0;points=[[0,0.5],[1,0.5]];portConstraint=eastwest;html=1;" vertex="1" parent="1">
          <mxGeometry x="1106" y="450" width="80" height="26" as="geometry" />
        </mxCell>
        <mxCell id="GBFmPOaDEiTFyvfFLv_L-21" value="" style="rounded=0;orthogonalLoop=1;jettySize=auto;html=1;endArrow=halfCircle;endFill=0;endSize=6;strokeWidth=1;sketch=0;exitX=0;exitY=0.5;exitDx=0;exitDy=0;" edge="1" parent="1" source="GBFmPOaDEiTFyvfFLv_L-3" target="GBFmPOaDEiTFyvfFLv_L-63">
          <mxGeometry relative="1" as="geometry">
            <mxPoint x="1040" y="405" as="sourcePoint" />
          </mxGeometry>
        </mxCell>
        <mxCell id="GBFmPOaDEiTFyvfFLv_L-22" value="" style="rounded=0;orthogonalLoop=1;jettySize=auto;html=1;endArrow=oval;endFill=0;sketch=0;sourcePerimeterSpacing=0;targetPerimeterSpacing=0;endSize=10;exitX=1;exitY=0.5;exitDx=0;exitDy=0;" edge="1" parent="1" source="GBFmPOaDEiTFyvfFLv_L-63" target="GBFmPOaDEiTFyvfFLv_L-23">
          <mxGeometry relative="1" as="geometry">
            <mxPoint x="1000" y="405" as="sourcePoint" />
          </mxGeometry>
        </mxCell>
        <mxCell id="GBFmPOaDEiTFyvfFLv_L-23" value="" style="ellipse;whiteSpace=wrap;html=1;align=center;aspect=fixed;fillColor=none;strokeColor=none;resizable=0;perimeter=centerPerimeter;rotatable=0;allowArrows=0;points=[];outlineConnect=1;" vertex="1" parent="1">
          <mxGeometry x="880" y="430" width="10" height="10" as="geometry" />
        </mxCell>
        <mxCell id="GBFmPOaDEiTFyvfFLv_L-24" value="Notification system" style="html=1;dropTarget=0;whiteSpace=wrap;fillColor=#ffe6cc;strokeColor=#d79b00;" vertex="1" parent="1">
          <mxGeometry x="660" y="390" width="180" height="90" as="geometry" />
        </mxCell>
        <mxCell id="GBFmPOaDEiTFyvfFLv_L-25" value="" style="shape=module;jettyWidth=8;jettyHeight=4;" vertex="1" parent="GBFmPOaDEiTFyvfFLv_L-24">
          <mxGeometry x="1" width="20" height="20" relative="1" as="geometry">
            <mxPoint x="-27" y="7" as="offset" />
          </mxGeometry>
        </mxCell>
        <mxCell id="GBFmPOaDEiTFyvfFLv_L-26" value="Stock Comparison Session" style="html=1;dropTarget=0;whiteSpace=wrap;fillColor=#ffe6cc;strokeColor=#d79b00;" vertex="1" parent="1">
          <mxGeometry x="660" y="590" width="180" height="90" as="geometry" />
        </mxCell>
        <mxCell id="GBFmPOaDEiTFyvfFLv_L-27" value="" style="shape=module;jettyWidth=8;jettyHeight=4;" vertex="1" parent="GBFmPOaDEiTFyvfFLv_L-26">
          <mxGeometry x="1" width="20" height="20" relative="1" as="geometry">
            <mxPoint x="-27" y="7" as="offset" />
          </mxGeometry>
        </mxCell>
        <mxCell id="GBFmPOaDEiTFyvfFLv_L-28" value="AI analyser" style="html=1;dropTarget=0;whiteSpace=wrap;fillColor=#d5e8d4;strokeColor=#82b366;" vertex="1" parent="1">
          <mxGeometry x="1190" y="590" width="180" height="90" as="geometry" />
        </mxCell>
        <mxCell id="GBFmPOaDEiTFyvfFLv_L-29" value="" style="shape=module;jettyWidth=8;jettyHeight=4;" vertex="1" parent="GBFmPOaDEiTFyvfFLv_L-28">
          <mxGeometry x="1" width="20" height="20" relative="1" as="geometry">
            <mxPoint x="-27" y="7" as="offset" />
          </mxGeometry>
        </mxCell>
        <mxCell id="GBFmPOaDEiTFyvfFLv_L-30" value="Graphical component display/view" style="html=1;dropTarget=0;whiteSpace=wrap;fillColor=#d5e8d4;strokeColor=#82b366;" vertex="1" parent="1">
          <mxGeometry x="1450" y="400" width="180" height="90" as="geometry" />
        </mxCell>
        <mxCell id="GBFmPOaDEiTFyvfFLv_L-31" value="" style="shape=module;jettyWidth=8;jettyHeight=4;" vertex="1" parent="GBFmPOaDEiTFyvfFLv_L-30">
          <mxGeometry x="1" width="20" height="20" relative="1" as="geometry">
            <mxPoint x="-27" y="7" as="offset" />
          </mxGeometry>
        </mxCell>
        <mxCell id="GBFmPOaDEiTFyvfFLv_L-32" value="" style="rounded=0;orthogonalLoop=1;jettySize=auto;html=1;endArrow=halfCircle;endFill=0;endSize=6;strokeWidth=1;sketch=0;exitX=0.5;exitY=0;exitDx=0;exitDy=0;" edge="1" parent="1" source="GBFmPOaDEiTFyvfFLv_L-28" target="GBFmPOaDEiTFyvfFLv_L-34">
          <mxGeometry relative="1" as="geometry">
            <mxPoint x="1320" y="495" as="sourcePoint" />
          </mxGeometry>
        </mxCell>
        <mxCell id="GBFmPOaDEiTFyvfFLv_L-33" value="" style="rounded=0;orthogonalLoop=1;jettySize=auto;html=1;endArrow=oval;endFill=0;sketch=0;sourcePerimeterSpacing=0;targetPerimeterSpacing=0;endSize=10;exitX=0.5;exitY=1;exitDx=0;exitDy=0;" edge="1" parent="1" source="GBFmPOaDEiTFyvfFLv_L-5" target="GBFmPOaDEiTFyvfFLv_L-34">
          <mxGeometry relative="1" as="geometry">
            <mxPoint x="1280" y="495" as="sourcePoint" />
          </mxGeometry>
        </mxCell>
        <mxCell id="GBFmPOaDEiTFyvfFLv_L-34" value="" style="ellipse;whiteSpace=wrap;html=1;align=center;aspect=fixed;fillColor=none;strokeColor=none;resizable=0;perimeter=centerPerimeter;rotatable=0;allowArrows=0;points=[];outlineConnect=1;" vertex="1" parent="1">
          <mxGeometry x="1275" y="540" width="10" height="10" as="geometry" />
        </mxCell>
        <mxCell id="GBFmPOaDEiTFyvfFLv_L-35" value="" style="rounded=0;orthogonalLoop=1;jettySize=auto;html=1;endArrow=halfCircle;endFill=0;endSize=6;strokeWidth=1;sketch=0;exitX=0;exitY=0.5;exitDx=0;exitDy=0;" edge="1" parent="1" source="GBFmPOaDEiTFyvfFLv_L-30" target="GBFmPOaDEiTFyvfFLv_L-37">
          <mxGeometry relative="1" as="geometry">
            <mxPoint x="1410" y="445" as="sourcePoint" />
          </mxGeometry>
        </mxCell>
        <mxCell id="GBFmPOaDEiTFyvfFLv_L-36" value="" style="rounded=0;orthogonalLoop=1;jettySize=auto;html=1;endArrow=oval;endFill=0;sketch=0;sourcePerimeterSpacing=0;targetPerimeterSpacing=0;endSize=10;" edge="1" parent="1" target="GBFmPOaDEiTFyvfFLv_L-37">
          <mxGeometry relative="1" as="geometry">
            <mxPoint x="1370" y="445" as="sourcePoint" />
          </mxGeometry>
        </mxCell>
        <mxCell id="GBFmPOaDEiTFyvfFLv_L-37" value="" style="ellipse;whiteSpace=wrap;html=1;align=center;aspect=fixed;fillColor=none;strokeColor=none;resizable=0;perimeter=centerPerimeter;rotatable=0;allowArrows=0;points=[];outlineConnect=1;" vertex="1" parent="1">
          <mxGeometry x="1410" y="440" width="10" height="10" as="geometry" />
        </mxCell>
        <mxCell id="GBFmPOaDEiTFyvfFLv_L-38" value="" style="rounded=0;orthogonalLoop=1;jettySize=auto;html=1;endArrow=halfCircle;endFill=0;endSize=6;strokeWidth=1;sketch=0;exitX=0.5;exitY=1;exitDx=0;exitDy=0;" edge="1" parent="1" source="GBFmPOaDEiTFyvfFLv_L-24" target="GBFmPOaDEiTFyvfFLv_L-40">
          <mxGeometry relative="1" as="geometry">
            <mxPoint x="800" y="515" as="sourcePoint" />
          </mxGeometry>
        </mxCell>
        <mxCell id="GBFmPOaDEiTFyvfFLv_L-39" value="" style="rounded=0;orthogonalLoop=1;jettySize=auto;html=1;endArrow=oval;endFill=0;sketch=0;sourcePerimeterSpacing=0;targetPerimeterSpacing=0;endSize=10;exitX=0.5;exitY=0;exitDx=0;exitDy=0;" edge="1" parent="1" source="GBFmPOaDEiTFyvfFLv_L-26" target="GBFmPOaDEiTFyvfFLv_L-40">
          <mxGeometry relative="1" as="geometry">
            <mxPoint x="760" y="515" as="sourcePoint" />
          </mxGeometry>
        </mxCell>
        <mxCell id="GBFmPOaDEiTFyvfFLv_L-40" value="" style="ellipse;whiteSpace=wrap;html=1;align=center;aspect=fixed;fillColor=none;strokeColor=none;resizable=0;perimeter=centerPerimeter;rotatable=0;allowArrows=0;points=[];outlineConnect=1;" vertex="1" parent="1">
          <mxGeometry x="745" y="530" width="10" height="10" as="geometry" />
        </mxCell>
        <mxCell id="GBFmPOaDEiTFyvfFLv_L-41" value="" style="rounded=0;orthogonalLoop=1;jettySize=auto;html=1;endArrow=halfCircle;endFill=0;endSize=6;strokeWidth=1;sketch=0;exitX=1;exitY=0.5;exitDx=0;exitDy=0;" edge="1" parent="1" source="GBFmPOaDEiTFyvfFLv_L-26" target="GBFmPOaDEiTFyvfFLv_L-43">
          <mxGeometry relative="1" as="geometry">
            <mxPoint x="930" y="750" as="sourcePoint" />
          </mxGeometry>
        </mxCell>
        <mxCell id="GBFmPOaDEiTFyvfFLv_L-42" value="" style="rounded=0;orthogonalLoop=1;jettySize=auto;html=1;endArrow=oval;endFill=0;sketch=0;sourcePerimeterSpacing=0;targetPerimeterSpacing=0;endSize=10;exitX=0;exitY=0.5;exitDx=0;exitDy=0;" edge="1" parent="1" source="GBFmPOaDEiTFyvfFLv_L-28" target="GBFmPOaDEiTFyvfFLv_L-43">
          <mxGeometry relative="1" as="geometry">
            <mxPoint x="1060" y="615" as="sourcePoint" />
          </mxGeometry>
        </mxCell>
        <mxCell id="GBFmPOaDEiTFyvfFLv_L-43" value="" style="ellipse;whiteSpace=wrap;html=1;align=center;aspect=fixed;fillColor=none;strokeColor=none;resizable=0;perimeter=centerPerimeter;rotatable=0;allowArrows=0;points=[];outlineConnect=1;" vertex="1" parent="1">
          <mxGeometry x="1020" y="630" width="10" height="10" as="geometry" />
        </mxCell>
        <mxCell id="GBFmPOaDEiTFyvfFLv_L-44" value="User" style="html=1;dropTarget=0;whiteSpace=wrap;fillColor=#ffe6cc;strokeColor=#d79b00;" vertex="1" parent="1">
          <mxGeometry x="660" y="750" width="180" height="90" as="geometry" />
        </mxCell>
        <mxCell id="GBFmPOaDEiTFyvfFLv_L-45" value="" style="shape=module;jettyWidth=8;jettyHeight=4;" vertex="1" parent="GBFmPOaDEiTFyvfFLv_L-44">
          <mxGeometry x="1" width="20" height="20" relative="1" as="geometry">
            <mxPoint x="-27" y="7" as="offset" />
          </mxGeometry>
        </mxCell>
        <mxCell id="GBFmPOaDEiTFyvfFLv_L-46" value="" style="rounded=0;orthogonalLoop=1;jettySize=auto;html=1;endArrow=halfCircle;endFill=0;endSize=6;strokeWidth=1;sketch=0;exitX=1;exitY=0.5;exitDx=0;exitDy=0;" edge="1" parent="1" source="GBFmPOaDEiTFyvfFLv_L-44" target="GBFmPOaDEiTFyvfFLv_L-48">
          <mxGeometry relative="1" as="geometry">
            <mxPoint x="1600" y="565" as="sourcePoint" />
          </mxGeometry>
        </mxCell>
        <mxCell id="GBFmPOaDEiTFyvfFLv_L-47" value="" style="rounded=0;orthogonalLoop=1;jettySize=auto;html=1;endArrow=oval;endFill=0;sketch=0;sourcePerimeterSpacing=0;targetPerimeterSpacing=0;endSize=10;exitX=0.5;exitY=1;exitDx=0;exitDy=0;" edge="1" parent="1" source="GBFmPOaDEiTFyvfFLv_L-30" target="GBFmPOaDEiTFyvfFLv_L-48">
          <mxGeometry relative="1" as="geometry">
            <mxPoint x="1560" y="565" as="sourcePoint" />
          </mxGeometry>
        </mxCell>
        <mxCell id="GBFmPOaDEiTFyvfFLv_L-48" value="" style="ellipse;whiteSpace=wrap;html=1;align=center;aspect=fixed;fillColor=none;strokeColor=none;resizable=0;perimeter=centerPerimeter;rotatable=0;allowArrows=0;points=[];outlineConnect=1;" vertex="1" parent="1">
          <mxGeometry x="1535" y="790" width="10" height="10" as="geometry" />
        </mxCell>
        <mxCell id="GBFmPOaDEiTFyvfFLv_L-49" value="" style="rounded=0;orthogonalLoop=1;jettySize=auto;html=1;endArrow=halfCircle;endFill=0;endSize=6;strokeWidth=1;sketch=0;exitX=0.5;exitY=1;exitDx=0;exitDy=0;" edge="1" parent="1" source="GBFmPOaDEiTFyvfFLv_L-26" target="GBFmPOaDEiTFyvfFLv_L-51">
          <mxGeometry relative="1" as="geometry">
            <mxPoint x="840" y="715" as="sourcePoint" />
          </mxGeometry>
        </mxCell>
        <mxCell id="GBFmPOaDEiTFyvfFLv_L-50" value="" style="rounded=0;orthogonalLoop=1;jettySize=auto;html=1;endArrow=oval;endFill=0;sketch=0;sourcePerimeterSpacing=0;targetPerimeterSpacing=0;endSize=10;exitX=0.5;exitY=0;exitDx=0;exitDy=0;" edge="1" parent="1" source="GBFmPOaDEiTFyvfFLv_L-44" target="GBFmPOaDEiTFyvfFLv_L-51">
          <mxGeometry relative="1" as="geometry">
            <mxPoint x="800" y="715" as="sourcePoint" />
          </mxGeometry>
        </mxCell>
        <mxCell id="GBFmPOaDEiTFyvfFLv_L-51" value="" style="ellipse;whiteSpace=wrap;html=1;align=center;aspect=fixed;fillColor=none;strokeColor=none;resizable=0;perimeter=centerPerimeter;rotatable=0;allowArrows=0;points=[];outlineConnect=1;" vertex="1" parent="1">
          <mxGeometry x="745" y="710" width="10" height="10" as="geometry" />
        </mxCell>
        <mxCell id="GBFmPOaDEiTFyvfFLv_L-52" value="Portifolio" style="html=1;dropTarget=0;whiteSpace=wrap;fillColor=#ffe6cc;strokeColor=#d79b00;" vertex="1" parent="1">
          <mxGeometry x="370" y="750" width="180" height="90" as="geometry" />
        </mxCell>
        <mxCell id="GBFmPOaDEiTFyvfFLv_L-53" value="" style="shape=module;jettyWidth=8;jettyHeight=4;" vertex="1" parent="GBFmPOaDEiTFyvfFLv_L-52">
          <mxGeometry x="1" width="20" height="20" relative="1" as="geometry">
            <mxPoint x="-27" y="7" as="offset" />
          </mxGeometry>
        </mxCell>
        <mxCell id="GBFmPOaDEiTFyvfFLv_L-54" value="" style="rounded=0;orthogonalLoop=1;jettySize=auto;html=1;endArrow=halfCircle;endFill=0;endSize=6;strokeWidth=1;sketch=0;exitX=1;exitY=0.5;exitDx=0;exitDy=0;" edge="1" parent="1" source="GBFmPOaDEiTFyvfFLv_L-52" target="GBFmPOaDEiTFyvfFLv_L-56">
          <mxGeometry relative="1" as="geometry">
            <mxPoint x="630" y="805" as="sourcePoint" />
          </mxGeometry>
        </mxCell>
        <mxCell id="GBFmPOaDEiTFyvfFLv_L-55" value="" style="rounded=0;orthogonalLoop=1;jettySize=auto;html=1;endArrow=oval;endFill=0;sketch=0;sourcePerimeterSpacing=0;targetPerimeterSpacing=0;endSize=10;exitX=0;exitY=0.5;exitDx=0;exitDy=0;" edge="1" parent="1" source="GBFmPOaDEiTFyvfFLv_L-44" target="GBFmPOaDEiTFyvfFLv_L-56">
          <mxGeometry relative="1" as="geometry">
            <mxPoint x="590" y="805" as="sourcePoint" />
          </mxGeometry>
        </mxCell>
        <mxCell id="GBFmPOaDEiTFyvfFLv_L-56" value="" style="ellipse;whiteSpace=wrap;html=1;align=center;aspect=fixed;fillColor=none;strokeColor=none;resizable=0;perimeter=centerPerimeter;rotatable=0;allowArrows=0;points=[];outlineConnect=1;" vertex="1" parent="1">
          <mxGeometry x="600" y="790" width="10" height="10" as="geometry" />
        </mxCell>
        <mxCell id="GBFmPOaDEiTFyvfFLv_L-57" value="" style="rounded=0;orthogonalLoop=1;jettySize=auto;html=1;endArrow=halfCircle;endFill=0;endSize=6;strokeWidth=1;sketch=0;exitX=0.5;exitY=1;exitDx=0;exitDy=0;" edge="1" parent="1" source="GBFmPOaDEiTFyvfFLv_L-44" target="GBFmPOaDEiTFyvfFLv_L-59">
          <mxGeometry relative="1" as="geometry">
            <mxPoint x="785" y="965" as="sourcePoint" />
          </mxGeometry>
        </mxCell>
        <mxCell id="GBFmPOaDEiTFyvfFLv_L-58" value="" style="rounded=0;orthogonalLoop=1;jettySize=auto;html=1;endArrow=oval;endFill=0;sketch=0;sourcePerimeterSpacing=0;targetPerimeterSpacing=0;endSize=10;exitX=0.5;exitY=0;exitDx=0;exitDy=0;" edge="1" parent="1" source="GBFmPOaDEiTFyvfFLv_L-60" target="GBFmPOaDEiTFyvfFLv_L-59">
          <mxGeometry relative="1" as="geometry">
            <mxPoint x="750" y="960" as="sourcePoint" />
          </mxGeometry>
        </mxCell>
        <mxCell id="GBFmPOaDEiTFyvfFLv_L-59" value="" style="ellipse;whiteSpace=wrap;html=1;align=center;aspect=fixed;fillColor=none;strokeColor=none;resizable=0;perimeter=centerPerimeter;rotatable=0;allowArrows=0;points=[];outlineConnect=1;" vertex="1" parent="1">
          <mxGeometry x="745" y="900" width="10" height="10" as="geometry" />
        </mxCell>
        <mxCell id="GBFmPOaDEiTFyvfFLv_L-60" value="Login/Logout" style="html=1;dropTarget=0;whiteSpace=wrap;fillColor=#ffe6cc;strokeColor=#d79b00;" vertex="1" parent="1">
          <mxGeometry x="660" y="970" width="180" height="90" as="geometry" />
        </mxCell>
        <mxCell id="GBFmPOaDEiTFyvfFLv_L-61" value="" style="shape=module;jettyWidth=8;jettyHeight=4;" vertex="1" parent="GBFmPOaDEiTFyvfFLv_L-60">
          <mxGeometry x="1" width="20" height="20" relative="1" as="geometry">
            <mxPoint x="-27" y="7" as="offset" />
          </mxGeometry>
        </mxCell>
        <mxCell id="GBFmPOaDEiTFyvfFLv_L-62" value="" style="rounded=0;orthogonalLoop=1;jettySize=auto;html=1;endArrow=oval;endFill=0;sketch=0;sourcePerimeterSpacing=0;targetPerimeterSpacing=0;endSize=10;exitX=1;exitY=0.5;exitDx=0;exitDy=0;" edge="1" parent="1" source="GBFmPOaDEiTFyvfFLv_L-24" target="GBFmPOaDEiTFyvfFLv_L-63">
          <mxGeometry relative="1" as="geometry">
            <mxPoint x="840" y="435" as="sourcePoint" />
            <mxPoint x="885" y="435" as="targetPoint" />
          </mxGeometry>
        </mxCell>
        <mxCell id="GBFmPOaDEiTFyvfFLv_L-63" value="" style="ellipse;whiteSpace=wrap;html=1;align=center;aspect=fixed;fillColor=none;strokeColor=none;resizable=0;perimeter=centerPerimeter;rotatable=0;allowArrows=0;points=[];outlineConnect=1;" vertex="1" parent="1">
          <mxGeometry x="880" y="430" width="10" height="10" as="geometry" />
        </mxCell>
        <mxCell id="GBFmPOaDEiTFyvfFLv_L-64" value="IAI" style="text;align=center;fontStyle=1;verticalAlign=middle;spacingLeft=3;spacingRight=3;strokeColor=none;rotatable=0;points=[[0,0.5],[1,0.5]];portConstraint=eastwest;html=1;" vertex="1" parent="1">
          <mxGeometry x="1270" y="530" width="80" height="26" as="geometry" />
        </mxCell>
        <mxCell id="GBFmPOaDEiTFyvfFLv_L-65" value="&lt;font style=&quot;font-size: 11px;&quot;&gt;IStockDisplay&lt;/font&gt;" style="text;align=center;fontStyle=1;verticalAlign=middle;spacingLeft=3;spacingRight=3;strokeColor=none;rotatable=0;points=[[0,0.5],[1,0.5]];portConstraint=eastwest;html=1;" vertex="1" parent="1">
          <mxGeometry x="1371" y="450" width="80" height="26" as="geometry" />
        </mxCell>
        <mxCell id="GBFmPOaDEiTFyvfFLv_L-66" value="IStockViewer" style="text;align=center;fontStyle=1;verticalAlign=middle;spacingLeft=3;spacingRight=3;strokeColor=none;rotatable=0;points=[[0,0.5],[1,0.5]];portConstraint=eastwest;html=1;" vertex="1" parent="1">
          <mxGeometry x="1450" y="800" width="80" height="26" as="geometry" />
        </mxCell>
        <mxCell id="GBFmPOaDEiTFyvfFLv_L-67" value="ILogin" style="text;align=center;fontStyle=1;verticalAlign=middle;spacingLeft=3;spacingRight=3;strokeColor=none;rotatable=0;points=[[0,0.5],[1,0.5]];portConstraint=eastwest;html=1;" vertex="1" parent="1">
          <mxGeometry x="745" y="892" width="80" height="26" as="geometry" />
        </mxCell>
        <mxCell id="GBFmPOaDEiTFyvfFLv_L-68" value="&lt;span style=&quot;white-space: pre;&quot;&gt;&#x9;&lt;/span&gt;IPortifolio" style="text;align=center;fontStyle=1;verticalAlign=middle;spacingLeft=3;spacingRight=3;strokeColor=none;rotatable=0;points=[[0,0.5],[1,0.5]];portConstraint=eastwest;html=1;" vertex="1" parent="1">
          <mxGeometry x="550" y="800" width="80" height="26" as="geometry" />
        </mxCell>
        <mxCell id="GBFmPOaDEiTFyvfFLv_L-69" value="IStockComparison" style="text;align=center;fontStyle=1;verticalAlign=middle;spacingLeft=3;spacingRight=3;strokeColor=none;rotatable=0;points=[[0,0.5],[1,0.5]];portConstraint=eastwest;html=1;" vertex="1" parent="1">
          <mxGeometry x="985" y="640" width="80" height="26" as="geometry" />
        </mxCell>
        <mxCell id="GBFmPOaDEiTFyvfFLv_L-70" value="IUserSession" style="text;align=center;fontStyle=1;verticalAlign=middle;spacingLeft=3;spacingRight=3;strokeColor=none;rotatable=0;points=[[0,0.5],[1,0.5]];portConstraint=eastwest;html=1;" vertex="1" parent="1">
          <mxGeometry x="761" y="702" width="80" height="26" as="geometry" />
        </mxCell>
        <mxCell id="GBFmPOaDEiTFyvfFLv_L-71" value="INotifcation" style="text;align=center;fontStyle=1;verticalAlign=middle;spacingLeft=3;spacingRight=3;strokeColor=none;rotatable=0;points=[[0,0.5],[1,0.5]];portConstraint=eastwest;html=1;" vertex="1" parent="1">
          <mxGeometry x="761" y="524" width="80" height="26" as="geometry" />
        </mxCell>
      </root>
    </mxGraphModel>
  </diagram>
</mxfile>
